<svg width="60" height="60" viewBox="0 0 60 60" fill="none" xmlns="http://www.w3.org/2000/svg">
<g clip-path="url(#clip0_201_407)">
<path d="M60 30C60 46.5685 46.5685 60 30 60C13.4315 60 0 46.5685 0 30C0 13.4315 13.4315 0 30 0C46.5685 0 60 13.4315 60 30ZM6 30C6 43.2548 16.7452 54 30 54C43.2548 54 54 43.2548 54 30C54 16.7452 43.2548 6 30 6C16.7452 6 6 16.7452 6 30Z" fill="#F7F8FF"/>
<path d="M60 30C60 26.0603 59.224 22.1593 57.7164 18.5195C56.2087 14.8797 53.999 11.5726 51.2132 8.7868C48.4274 6.00104 45.1203 3.79125 41.4805 2.28361C37.8407 0.775973 33.9397 -1.72208e-07 30 0V6C33.1517 6 36.2726 6.62078 39.1844 7.82689C42.0962 9.033 44.742 10.8008 46.9706 13.0294C49.1992 15.258 50.967 17.9038 52.1731 20.8156C53.3792 23.7274 54 26.8483 54 30H60Z" fill="#EB1951"/>
</g>
<defs>
<clipPath id="clip0_201_407">
<rect width="60" height="60" fill="white"/>
</clipPath>
</defs>
</svg>
