<svg width="132" height="60" viewBox="0 0 132 60" fill="none" xmlns="http://www.w3.org/2000/svg">
<path fill-rule="evenodd" clip-rule="evenodd" d="M21.0201 39.7035C23.6263 43.1194 27.5522 45.6004 33.6 45.6004C39.6478 45.6004 43.5737 43.1194 46.1799 39.7035C48.9652 36.0529 50.4 31.061 50.4 26.4004H64.8C64.8 33.6611 62.6402 41.8692 57.6282 48.4382C52.4372 55.242 44.363 60.0004 33.6 60.0004C22.837 60.0004 14.7628 55.242 9.57176 48.4382C4.5598 41.8692 2.40002 33.661 2.40002 26.4004H16.8C16.8 31.061 18.2348 36.0529 21.0201 39.7035Z" fill="#F7F8FF"/>
<path fill-rule="evenodd" clip-rule="evenodd" d="M0 9.6C0 4.30152 4.30162 0 9.6 0C14.8984 0 19.2 4.30152 19.2 9.6C19.2 14.8985 14.8984 19.2 9.6 19.2C4.30162 19.2 0 14.8985 0 9.6Z" fill="#F7F8FF"/>
<path fill-rule="evenodd" clip-rule="evenodd" d="M76.7718 16.362C81.9628 9.55818 90.037 4.7998 100.8 4.7998C111.563 4.7998 119.637 9.55818 124.828 16.362C129.84 22.931 132 31.1391 132 38.3998H117.6C117.6 33.7392 116.165 28.7473 113.38 25.0967C110.774 21.6808 106.848 19.1998 100.8 19.1998C94.7522 19.1998 90.8263 21.6808 88.2201 25.0967C85.4348 28.7473 84 33.7392 84 38.3998H69.6C69.6 31.1391 71.7598 22.931 76.7718 16.362Z" fill="#F7F8FF"/>
<path fill-rule="evenodd" clip-rule="evenodd" d="M98.4 58.7998H69.6V46.7998H98.4V58.7998Z" fill="#F7F8FF"/>
</svg>
